<svg xmlns="http://www.w3.org/2000/svg" viewBox="0 0 1211.98 357.49"><defs><style>.cls-1{fill:#7dab05;}.cls-1,.cls-2,.cls-3,.cls-4,.cls-5,.cls-6{fill-rule:evenodd;}.cls-2{fill:#a5bf30;}.cls-3{fill:#96c424;}.cls-4{fill:#96c423;}.cls-5{fill:#c5db63;}.cls-6{fill:#3e543c;}</style></defs><g id="Layer_2" data-name="Layer 2"><g id="Layer_1-2" data-name="Layer 1"><path class="cls-1" d="M208.72,178.75l33.18-19.16a11.13,11.13,0,0,1,11.29,0l35.14,20.29L255.16,199a11.18,11.18,0,0,1-11.29,0l-35.15-20.29Z"/><path class="cls-1" d="M130.08,133.34,96.9,114.18a11.14,11.14,0,0,1-5.65-9.77V66.1l33.18,19.15A11.14,11.14,0,0,1,130.08,95v38.31Z"/><path class="cls-2" d="M26.22,178.75l33.17-19.16a11.13,11.13,0,0,1,11.29,0l33.18,19.16L70.69,197.9a11.15,11.15,0,0,1-11.3,0L26.22,178.75ZM221.33,291.39l-33.18-19.15a11.15,11.15,0,0,1-5.64-9.78V224.15l33.18,19.16a11.14,11.14,0,0,1,5.64,9.78v38.3ZM184.48,132.2v-36a11.13,11.13,0,0,1,5.64-9.78l31.21-18v36a11.15,11.15,0,0,1-5.64,9.77l-31.21,18Z"/><path class="cls-1" d="M91.25,291.39v-38.3a11.13,11.13,0,0,1,5.65-9.78l33.18-19.16v38.31a11.14,11.14,0,0,1-5.65,9.78L91.25,291.39Z"/><path class="cls-3" d="M182.51,220.89V200.4a11.15,11.15,0,0,1,5.64-9.78l17.75-10.24,36.55,21.1a13.94,13.94,0,0,0,14.12,0l34.59-20,15.78,9.11a11.13,11.13,0,0,1,5.64,9.78v62.06a11.13,11.13,0,0,1-5.64,9.78l-53.75,31a11.13,11.13,0,0,1-11.29,0L224.16,293V253.09a14,14,0,0,0-7.06-12.23l-34.59-20Z"/><path class="cls-4" d="M181.65,133.83l-19.71,11.39a11.18,11.18,0,0,1-11.29,0L132.9,135V95a13.94,13.94,0,0,0-7.06-12.22l-34.59-20V42.35a11.14,11.14,0,0,1,5.65-9.78l53.75-31a11.13,11.13,0,0,1,11.29,0l53.75,31a11.15,11.15,0,0,1,5.64,9.78V65.11L188.71,83.94a14,14,0,0,0-7.06,12.23v37.66Z"/><path class="cls-3" d="M88.43,293,70.69,303.27a11.15,11.15,0,0,1-11.3,0l-53.74-31A11.14,11.14,0,0,1,0,262.46V200.4a11.14,11.14,0,0,1,5.65-9.78l17.74-10.24,34.59,20a14,14,0,0,0,14.12,0l34.58-20,17.75,10.24a11.14,11.14,0,0,1,5.65,9.78v20.49l-34.59,20a14,14,0,0,0-7.06,12.23V293Z"/><path class="cls-5" d="M221.33,294.66v20.49a11.15,11.15,0,0,1-5.64,9.78l-53.75,31a11.18,11.18,0,0,1-11.29,0l-53.75-31a11.14,11.14,0,0,1-5.65-9.78V294.66l34.59-20a13.94,13.94,0,0,0,7.06-12.22V222.52l17.75-10.24a11.13,11.13,0,0,1,11.29,0l17.74,10.24v39.94a14,14,0,0,0,7.06,12.22l34.59,20ZM254.6,157.15a13.92,13.92,0,0,0-14.11,0l-34.59,20L190.12,168a11.14,11.14,0,0,1-5.64-9.78V135.46l32.62-18.83a14,14,0,0,0,7.06-12.22V66.74l19.71-11.38a11.13,11.13,0,0,1,11.29,0l53.74,31a11.12,11.12,0,0,1,5.65,9.78v62.06A11.13,11.13,0,0,1,308.9,168l-17.74,10.24-36.56-21.1Zm-182.5,0a13.94,13.94,0,0,0-14.12,0l-34.59,20L5.65,166.87A11.14,11.14,0,0,1,0,157.09V95a11.14,11.14,0,0,1,5.65-9.78l53.74-31a11.13,11.13,0,0,1,11.29,0L88.43,64.47v39.94a13.94,13.94,0,0,0,7.06,12.22l34.59,20v20.49a11.14,11.14,0,0,1-5.65,9.78l-17.75,10.24-34.58-20Z"/><path class="cls-6" d="M515,84.08l.17-21.65H415.43V203.58h27.32V150.86a2.93,2.93,0,0,1,2.93-2.93h63.44V126.07H445.68a2.94,2.94,0,0,1-2.93-2.94V87a2.94,2.94,0,0,1,2.93-2.93Zm221.34,38.56v61.62l-4.41,3.1c-15.48,10.82-38,17.69-56.72,17.69-41.46,0-75.41-29.69-75.41-72,0-43.09,35.71-71.63,77.31-71.63,19.1,0,39.91,6.78,55,18.91l-15,19.08c-11-9.18-25.65-15.08-39.92-15.08C649.63,84.29,628,105.4,628,133s21.75,48.92,49.34,48.92c10.11,0,21.18-3.74,30.11-8.3A2.86,2.86,0,0,0,709,171V147.43a2.94,2.94,0,0,0-2.93-2.93H681.5l17.22-21.86h37.64ZM569.81,203.58V62.43H542.49V203.58ZM839,61.38c-41.61,0-76,28.84-76,71.63,0,42.62,34.46,72,76,72,41.39,0,76-29.44,76-72s-34.54-71.63-76-71.63Zm.42,23.12c26.92,0,47.45,21.81,47.45,48.51s-20.44,48.92-47.45,48.92c-26.86,0-48.3-22.16-48.3-48.92a48.16,48.16,0,0,1,48.3-48.51Zm221.49-22.07h-26.76l-35.92,64.44a2.93,2.93,0,0,1-5.11,0L956.38,62.43H929.62l52,96.06a2.85,2.85,0,0,1,.35,1.4v43.69h27.32V159.05a2.81,2.81,0,0,1,.35-1.39l51.23-95.23Zm122,141.15H1212l-60.3-141.15h-30.37L1060,203.58h27.78l10.82-26.74,10.92-26.67L1132.84,93a2.93,2.93,0,0,1,5.43,0l23.1,57.14,21.53,53.39Z"/><path class="cls-4" d="M421.91,289.63h16v6.27H415.43V257h6.48v32.61Zm50.54-32.72c11,0,20.28,8.35,20.28,19.55s-9.24,19.66-20.28,19.66-20.33-8.43-20.33-19.66,9.28-19.55,20.33-19.55Zm60.69,10.76L524,295.9h-6l-13-38.88H512l9.18,29,9.09-29,5.87-.08,9.19,29.06,9.09-29h6.78L548.14,295.9h-5.95l-9.05-28.23Zm84.29-10.76a20.89,20.89,0,0,1,14.17,5.65l.77.72-4,5-.91-.94a14.26,14.26,0,0,0-10-4.25,13.28,13.28,0,1,0,0,26.55,14.83,14.83,0,0,0,10-4.07l.86-.82,4.09,4.6-.81.76a21.35,21.35,0,0,1-14.38,6,19.76,19.76,0,0,1-20.07-19.71c0-11.17,9.28-19.5,20.22-19.5Zm47.06,8.86-7.1,16.17-1.78,4-4.38,9.94h-7L661.7,257h5.83l17.39,38.88h-7.07l-6.16-14-7.2-16.17Zm53.29,18.52q-.93.06-1.86.06h-8.57V295.9h-6.48V257h15c8.63,0,15.58,4.05,15.58,13.43,0,5.74-2.51,10.2-7.58,12.42l9,13h-7.56l-7.56-11.61ZM777,275.41a9.74,9.74,0,0,1,5.91,9.41c0,8.12-7.18,11.08-14.32,11.08H751.78V257h16.57c6.61,0,13,2.87,13,10.29a9.06,9.06,0,0,1-4.29,8.1Zm42.19-18.5c11,0,20.29,8.35,20.29,19.55s-9.25,19.66-20.29,19.66-20.33-8.45-20.33-19.66,9.27-19.55,20.33-19.55Zm45.22,11.93V295.9H858V257H864l20.23,27.11V257h6.43V295.9h-6l-20.23-27.06ZM936.28,257h15.94c11.09,0,20,8.22,20,19.44s-9,19.45-20.13,19.45H936.28V257Zm60.85,38.89h-6.49V257h6.49v38.89Zm47.41-8.62V275.73h6v15l-.43.35a23.81,23.81,0,0,1-14.31,5.06c-11,0-20.23-8.51-20.23-19.66s9.4-19.55,20.44-19.55a21.82,21.82,0,0,1,14.24,5.31l.81.71-3.81,5-.93-.83a15.67,15.67,0,0,0-10.31-3.94c-7.48,0-13.9,5.7-13.9,13.33s6.44,13.38,13.95,13.38a16.3,16.3,0,0,0,8.47-2.55Zm33.46,8.62h-6.48V257H1078v38.89Zm35.33-32.57v32.57h-6.47V263.34h-11.92V257h30.37v6.32Zm39.74,2.43L1146,281.94l-1.78,4-4.37,9.94h-7L1150.28,257h5.83l17.38,38.89h-7.07l-6.15-14-7.2-16.17Zm42.86,23.86h16v6.28h-22.53V257h6.48v32.61ZM472.45,263.18c-7.39,0-13.79,5.75-13.79,13.28s6.4,13.32,13.79,13.32a13.31,13.31,0,1,0,0-26.6ZM707.35,278h8.57c5.1,0,9.25-1.78,9.25-7.48s-4.27-7.21-9.25-7.21h-8.57V278Zm50.91-14.69v9.46h9.88c3.25,0,6.64-1,6.64-4.81s-3.5-4.65-6.64-4.65Zm0,15.73v10.56h9.88c3.6,0,8.26-.94,8.26-5.38s-4.86-5.18-8.26-5.18Zm61-15.89c-7.39,0-13.79,5.75-13.79,13.28s6.39,13.32,13.79,13.32a13.31,13.31,0,1,0,0-26.6Zm123.55.16v26.29h9.52a13,13,0,0,0,13.38-13.11c0-7.63-6-13.18-13.54-13.18Z"/></g></g></svg>